<svg xmlns="http://www.w3.org/2000/svg" width="104.3" height="104.3" viewBox="0 0 104.3 104.3"><defs><style>.a{fill:#f5b4d2;}.b{fill:none;stroke:#fe008c;stroke-linejoin:round;stroke-width:6px;}.c{fill:#fe008c;}</style></defs><g transform="translate(-1996.678 -297.431)"><path class="a" d="M2048.828,300.431a49.15,49.15,0,1,0,49.15,49.15A49.15,49.15,0,0,0,2048.828,300.431Z" transform="translate(0 0)"/><g transform="translate(1999.678 300.431)"><path class="b" d="M2026.029,306.027a49.082,49.082,0,1,1-23.549,27.156" transform="translate(-1999.678 -300.431)"/></g><g transform="translate(2004.948 305.085)"><g transform="translate(22.159 20.807)"><path class="c" d="M2085.712,397.72a2.3,2.3,0,0,1-2.033-1.213l-16.137-29.969a2.306,2.306,0,0,1,4.06-2.184l16.137,29.969a2.307,2.307,0,0,1-2.028,3.4Z" transform="translate(-2067.298 -363.198)"/><g transform="translate(16.108 13.8)"><path class="c" d="M2109.314,417.937a2.306,2.306,0,0,1-1.417-4.125l20.747-16.137a2.306,2.306,0,0,1,2.83,3.639l-20.748,16.136A2.3,2.3,0,0,1,2109.314,417.937Z" transform="translate(-2107.008 -397.218)"/></g></g><g transform="translate(0 41.494)"><path class="c" d="M2019.586,418.807h-4.611a2.305,2.305,0,0,1,0-4.611h4.611a2.305,2.305,0,1,1,0,4.611Z" transform="translate(-2012.67 -414.196)"/></g><g transform="translate(78.377 41.494)"><path class="c" d="M2212.8,418.807h-4.611a2.305,2.305,0,1,1,0-4.611h4.611a2.305,2.305,0,1,1,0,4.611Z" transform="translate(-2205.886 -414.196)"/></g><g transform="translate(41.494 78.377)"><path class="c" d="M2117.268,514.342a2.3,2.3,0,0,1-2.306-2.3v-4.612a2.305,2.305,0,1,1,4.611,0h0v4.611a2.3,2.3,0,0,1-2.3,2.306Z" transform="translate(-2114.962 -505.12)"/></g><g transform="translate(41.494)"><path class="c" d="M2117.268,321.125a2.3,2.3,0,0,1-2.306-2.3v-4.611a2.305,2.305,0,0,1,4.611,0v4.611a2.3,2.3,0,0,1-2.3,2.3Z" transform="translate(-2114.962 -311.904)"/></g></g></g></svg>