<svg xmlns="http://www.w3.org/2000/svg" width="311" height="218" viewBox="0 0 311 218"><defs><style>.a{fill:#ecf7eb;}.b{fill:#c8e6c3;}.c{fill:none;stroke:#004b50;stroke-linejoin:round;stroke-width:6px;}.d{fill:#004b50;}</style></defs><g transform="translate(-485 -823)"><rect class="a" width="311" height="218" transform="translate(485 823)"/><g transform="translate(-1424.678 576.569)"><path class="b" d="M2059.843,300.431a60.165,60.165,0,1,0,60.165,60.165A60.165,60.165,0,0,0,2059.843,300.431Z"/><g transform="translate(1999.678 300.431)"><path class="c" d="M2031.935,307.281a60.082,60.082,0,1,1-28.827,33.241" transform="translate(-1999.678 -300.431)"/></g><g transform="translate(2006.129 306.128)"><g transform="translate(27.126 25.47)"><path class="d" d="M2089.839,405.456a2.822,2.822,0,0,1-2.489-1.485L2067.6,367.286a2.823,2.823,0,0,1,4.969-2.673L2092.32,401.3a2.824,2.824,0,0,1-2.482,4.161Z" transform="translate(-2067.298 -363.198)"/><g transform="translate(19.718 16.893)"><path class="d" d="M2109.831,422.58a2.823,2.823,0,0,1-1.734-5.049l25.4-19.753a2.822,2.822,0,0,1,3.465,4.455l-25.4,19.752A2.812,2.812,0,0,1,2109.831,422.58Z" transform="translate(-2107.008 -397.218)"/></g></g><g transform="translate(0 50.794)"><path class="d" d="M2021.136,419.84h-5.644a2.822,2.822,0,0,1,0-5.644h5.644a2.822,2.822,0,1,1,0,5.644Z" transform="translate(-2012.67 -414.196)"/></g><g transform="translate(95.942 50.794)"><path class="d" d="M2214.352,419.84h-5.644a2.822,2.822,0,1,1,0-5.644h5.644a2.822,2.822,0,0,1,0,5.644Z" transform="translate(-2205.886 -414.196)"/></g><g transform="translate(50.793 95.942)"><path class="d" d="M2117.784,516.408a2.821,2.821,0,0,1-2.822-2.82v-5.646a2.822,2.822,0,1,1,5.644,0h0v5.644a2.821,2.821,0,0,1-2.821,2.822Z" transform="translate(-2114.962 -505.12)"/></g><g transform="translate(50.793)"><path class="d" d="M2117.784,323.191a2.821,2.821,0,0,1-2.822-2.82v-5.645a2.822,2.822,0,1,1,5.644,0v5.644a2.821,2.821,0,0,1-2.822,2.821Z" transform="translate(-2114.962 -311.904)"/></g></g></g></g></svg>