<svg xmlns="http://www.w3.org/2000/svg" width="18.1" height="11.313" viewBox="0 0 18.1 11.313"><defs><style>.a{fill:#fff;}</style></defs><path class="a" d="M9.05,3A10.137,10.137,0,0,0,0,8.656a10.068,10.068,0,0,0,18.1,0A10.137,10.137,0,0,0,9.05,3Zm4.463,3a8.615,8.615,0,0,1,2.641,2.656,8.591,8.591,0,0,1-2.641,2.656,8.291,8.291,0,0,1-8.924,0A8.615,8.615,0,0,1,1.947,8.656,8.591,8.591,0,0,1,4.588,6c.069-.044.139-.087.209-.129a4.525,4.525,0,1,0,8.5,0c.07.042.14.085.209.129h0Z" transform="translate(0 -3)"/></svg>