<svg xmlns="http://www.w3.org/2000/svg" width="311" height="218" viewBox="0 0 311 218"><defs><style>.a{fill:#ecf7eb;}.b,.d{fill:none;}.b,.d,.e{stroke:#004b50;stroke-linejoin:round;}.b{stroke-width:7px;}.c{fill:#c8e6c3;}.d{stroke-width:6px;}.e{fill:#502350;stroke-linecap:round;stroke-width:3px;}</style></defs><g transform="translate(-144 -823)"><rect class="a" width="311" height="218" transform="translate(144 823)"/><g transform="translate(-1371.575 598.824)"><g transform="translate(1632.368 277.199)"><path class="b" d="M1719.836,306.707a7.55,7.55,0,1,1,7.552,7.552A7.55,7.55,0,0,1,1719.836,306.707Z" transform="translate(-1690.963 -289.209)"/><path class="b" d="M1749.805,289.492s13.682-12.293,22.012-12.293c9.809,0,8.3,2.7,8.3,10.946v13.108c0,8.252-.5,10.946-8.3,10.946-3.726,0-8.523-2.459-12.687-5.178" transform="translate(-1707.354 -277.199)"/><path class="b" d="M1686.5,299.906s-13.682,12.293-22.012,12.293c-9.809,0-8.3-2.7-8.3-10.946V288.146c0-8.252.5-10.947,8.3-10.947,8.331,0,22.012,12.293,22.012,12.293" transform="translate(-1656.108 -277.199)"/></g><path class="c" d="M1715.115,330.643h-92.574a9.772,9.772,0,0,0-9.771,9.772V407.7a9.772,9.772,0,0,0,9.771,9.772h92.574a9.772,9.772,0,0,0,9.772-9.772V340.415A9.772,9.772,0,0,0,1715.115,330.643Z" transform="translate(-0.037 -29.23)"/><g transform="translate(1612.703 301.413)"><path class="d" d="M1654.242,417.47h60.806a9.772,9.772,0,0,0,9.771-9.772V340.415a9.772,9.772,0,0,0-9.771-9.772h-92.574a9.772,9.772,0,0,0-9.771,9.772V407.7a9.772,9.772,0,0,0,9.771,9.772h2.571" transform="translate(-1612.703 -330.643)"/></g><rect class="e" width="3.748" height="35.675" transform="translate(1666.887 302.249)"/><rect class="e" width="3.748" height="39.816" transform="translate(1666.887 347.22)"/><rect class="e" width="3.748" height="58.882" transform="translate(1725.575 344.518) rotate(90)"/><rect class="e" width="3.748" height="47.434" transform="translate(1660.847 344.518) rotate(90)"/></g></g></svg>