<svg xmlns="http://www.w3.org/2000/svg" width="101" height="83" viewBox="0 0 101 83"><defs><style>.a{fill:#828282;}</style></defs><path class="a" d="M94.267,0a6.149,6.149,0,0,1,4.208,1.844C100.158,3.689,101,4.611,101,7.378V76.544a7.411,7.411,0,0,1-1.683,4.611C97.633,82.078,96.792,83,94.267,83H6.733c-2.525,0-3.367-.922-5.05-1.844C.842,79.311,0,78.389,0,75.622V7.378A7.411,7.411,0,0,1,1.683,2.767C3.367.922,4.208,0,6.733,0ZM28.617,16.6a9.1,9.1,0,0,0-6.733-2.767A9.1,9.1,0,0,0,15.15,16.6a11.062,11.062,0,0,0-2.525,7.378,11.062,11.062,0,0,0,2.525,7.378,9.1,9.1,0,0,0,6.733,2.767,9.1,9.1,0,0,0,6.733-2.767,11.062,11.062,0,0,0,2.525-7.378A11.062,11.062,0,0,0,28.617,16.6ZM88.375,69.167l-25.25-41.5L40.4,59.944,25.25,47.956,12.625,69.167Z"/></svg>