<svg xmlns="http://www.w3.org/2000/svg" xmlns:xlink="http://www.w3.org/1999/xlink" width="101" height="89" viewBox="0 0 101 89"><defs><style>.a{fill:none;}.b{clip-path:url(#a);}.c{fill:#f8f8f8;}</style><clipPath id="a"><rect class="a" width="101" height="89"/></clipPath></defs><g class="b"><rect class="a" width="73" height="73" transform="translate(0 0)"/><path class="c" d="M94.267,0a6.085,6.085,0,0,1,4.208,1.889C100.158,3.778,101,4.722,101,7.556V78.389a7.7,7.7,0,0,1-1.683,4.722C97.633,84.056,96.792,85,94.267,85H6.733c-2.525,0-3.367-.944-5.05-1.889C.842,81.222,0,80.278,0,77.444V7.556A7.7,7.7,0,0,1,1.683,2.833C3.367.944,4.208,0,6.733,0ZM28.617,17a8.992,8.992,0,0,0-6.733-2.833A8.991,8.991,0,0,0,15.15,17a11.5,11.5,0,0,0-2.525,7.556,11.5,11.5,0,0,0,2.525,7.556,8.992,8.992,0,0,0,6.733,2.833,8.992,8.992,0,0,0,6.733-2.833,11.5,11.5,0,0,0,2.525-7.556A11.5,11.5,0,0,0,28.617,17ZM88.375,70.833l-25.25-42.5L40.4,61.389,25.25,49.111,12.625,70.833Z" transform="translate(0 2)"/></g></svg>