<svg xmlns="http://www.w3.org/2000/svg" width="80.65" height="80.65" viewBox="0 0 80.65 80.65"><defs><style>.a{fill:#828282;fill-rule:evenodd;}</style></defs><path class="a" d="M25.2,50.406c2.52,0,3.528,1.512,1.512,3.528L19.154,61.5a30.183,30.183,0,0,0,21.171,9.073A30.488,30.488,0,0,0,70.568,44.357,5.1,5.1,0,0,1,80.65,45.365v1.008A40.308,40.308,0,0,1,40.325,80.65,42.151,42.151,0,0,1,11.593,69.056L3.528,77.121C1.512,79.137,0,78.129,0,75.609V52.926a2.381,2.381,0,0,1,2.52-2.52ZM55.447,30.244c-2.52,0-3.528-1.512-1.512-3.528L61.5,19.154a30.183,30.183,0,0,0-21.171-9.073A30.488,30.488,0,0,0,10.081,36.292a4.79,4.79,0,0,1-5.041,4.032A4.762,4.762,0,0,1,0,35.284V34.276A40.308,40.308,0,0,1,40.325,0,42.151,42.151,0,0,1,69.056,11.593l8.065-8.065C79.137,1.512,80.65,2.52,80.65,5.041V27.723a2.381,2.381,0,0,1-2.52,2.52Z"/></svg>