<svg xmlns="http://www.w3.org/2000/svg" width="311" height="218" viewBox="0 0 311 218"><defs><style>.a{fill:#ecf7eb;}.b{fill:#c8e6c3;}.c{fill:#004b50;}</style></defs><g transform="translate(-485 -823)"><rect class="a" width="311" height="218" transform="translate(485 823)"/><g transform="translate(582.26 853.05)"><ellipse class="b" cx="27.247" cy="27.247" rx="27.247" ry="27.247" transform="translate(10.396 98.802)"/><g transform="translate(6.945 96.987)"><path class="c" d="M909.191,664.05a30.7,30.7,0,0,1-9.91-59.761l2.221,6.531a23.8,23.8,0,0,0,15.327,45.062l2.221,6.53A30.573,30.573,0,0,1,909.191,664.05Z" transform="translate(-878.467 -604.289)"/></g><ellipse class="b" cx="27.247" cy="27.247" rx="27.247" ry="27.247" transform="matrix(0.869, -0.495, 0.495, 0.869, 48.207, 69.975)"/><g transform="translate(62.394 49.475)"><path class="c" d="M977.067,530.471a30.7,30.7,0,0,1,38.2,47.016l-5.163-4.574a23.8,23.8,0,1,0-35.626-31.563l-5.163-4.575A30.584,30.584,0,0,1,977.067,530.471Z" transform="translate(-969.311 -526.448)"/></g><ellipse class="b" cx="27.247" cy="27.247" rx="27.247" ry="27.247" transform="translate(1.832 3.338) rotate(-3.511)"/><g transform="translate(0 0.464)"><path class="c" d="M899.692,505.192a30.7,30.7,0,0,1-13.552-59.041l2.617,6.382a23.8,23.8,0,0,0,18.059,44.038l2.617,6.383A30.573,30.573,0,0,1,899.692,505.192Z" transform="translate(-867.089 -446.151)"/></g></g></g></svg>