<svg xmlns="http://www.w3.org/2000/svg" width="117.032" height="81.479" viewBox="0 0 117.032 81.479"><defs><style>.a{fill:#eb008c;}</style></defs><g transform="translate(-57.578 -454.768)"><circle class="a" cx="23.149" cy="23.149" r="23.149" transform="translate(128.312 455.124)"/><path class="a" d="M111.695,501.217l-26.71-46.262a.374.374,0,0,0-.648,0L57.629,501.217a.374.374,0,0,0,.324.561h53.419A.374.374,0,0,0,111.695,501.217Z" transform="translate(0)"/><path class="a" d="M147.639,598.2a57.466,57.466,0,0,0,33.243-10.557.373.373,0,0,0,.107-.492l-7.8-13.513a.374.374,0,0,0-.533-.123,45.066,45.066,0,0,1-50.03,0,.374.374,0,0,0-.533.123l-7.8,13.512a.375.375,0,0,0,.107.492A57.47,57.47,0,0,0,147.639,598.2Z" transform="translate(-29.579 -61.957)"/></g></svg>