<svg xmlns="http://www.w3.org/2000/svg" width="14.863" height="14.92" viewBox="0 0 14.863 14.92"><defs><style>.a{fill:#f8f8f8;}</style></defs><path class="a" d="M15.242,7.036,13.682,6.9l-.407-1.017,1.017-1.221a.741.741,0,0,0-.068-1.017L13.275,2.7a.82.82,0,0,0-1.017-.068L11.037,3.713a3.2,3.2,0,0,0-1.017-.407L9.884,1.678A.79.79,0,0,0,9.138,1H7.782a.739.739,0,0,0-.746.678L6.9,3.238a6.844,6.844,0,0,0-1.017.475L4.662,2.628A.82.82,0,0,0,3.645,2.7L2.7,3.645a.82.82,0,0,0-.068,1.017L3.713,5.883A3.2,3.2,0,0,0,3.306,6.9l-1.628.136A.79.79,0,0,0,1,7.782V9.138a.739.739,0,0,0,.678.746l1.56.136.407,1.017L2.628,12.258A.741.741,0,0,0,2.7,13.275l.949.949a.82.82,0,0,0,1.017.068l1.221-1.085a3.2,3.2,0,0,0,1.017.407l.136,1.628a.739.739,0,0,0,.746.678H9.138a.739.739,0,0,0,.746-.678l.136-1.56,1.017-.407,1.221,1.017a.741.741,0,0,0,1.017-.068l.949-.949a.82.82,0,0,0,.068-1.017l-1.085-1.221a3.2,3.2,0,0,0,.407-1.017l1.56-.136a.739.739,0,0,0,.678-.746V7.782A.641.641,0,0,0,15.242,7.036ZM8.46,11.851A3.391,3.391,0,1,1,11.851,8.46,3.358,3.358,0,0,1,8.46,11.851Z" transform="translate(-1 -1)"/></svg>